<svg version="1.1" xmlns="http://www.w3.org/2000/svg" viewBox="0 0 4560.285714285714 2311.285714285714">
  <!-- svg-source:excalidraw -->
  <defs>
    <style>
      @font-face {
        font-family: "Virgil";
        src: url("https://excalidraw.com/FG_Virgil.woff2");
      }
      @font-face {
        font-family: "Cascadia";
        src: url("https://excalidraw.com/Cascadia.woff2");
      }
    </style>
  </defs>
  <rect x="0" y="0" width="4560.285714285714" height="2311.285714285714" fill="#ffffff"></rect><g transform="translate(2718.8229929436825 1672.328052190121) rotate(0 344.8275862068965 309.48275862068965)"><path d="M-0.08875225484371185 0.6399064391851426 C215.94071280349945 -1.586638964969537, 434.0163845268817 -2.211408080417535, 689.0076113553911 0.7801498740911484 M0.12154208868741989 -0.2418369695544243 C156.31628520935777 1.2074616782110317, 312.5402443334461 0.9327971331518274, 689.4058770524531 -0.13638724535703659 M690.1488550992875 0.15691150128841402 C687.7135425331007 132.0517353280094, 687.1170241119277 262.83917084906636, 689.5963115545183 619.2929791844097 M689.5127026902704 -0.3560241624712944 C688.945516651535 225.45530176442756, 689.0455100234984 451.40589313322096, 689.894958196786 619.26504808875 M689.6221011968522 619.3848042881694 C438.45099639615114 617.8222905400498, 189.068481072989 617.2794122937424, 0.15590440332889557 618.2269703304974 M689.8542374478847 619.2337778708544 C551.1549820171862 619.1771892807093, 413.1059386836557 619.0730539104547, 0.15038029402494432 618.7726901194659 M-0.31891630589962006 619.7565151608196 C-0.7032456208662741 427.5177560894397, -1.0780416299299946 234.7511008998957, 0.23745738565921784 -0.09453684389591217 M0.11094128340482712 619.0122084757891 C-1.7873241469520946 448.10646159461345, -2.1354478404182813 276.6830465615823, -0.023029406368732453 0.3475251749157906" stroke="#364fc7" stroke-width="4" fill="none"></path></g><g transform="translate(2828.5154440154442 1947.0652376514442) rotate(0 238.5 29.5)"><text x="0" y="47" font-family="Cascadia" font-size="47.85145888594164px" fill="#000000" text-anchor="start" style="white-space: pre;" direction="ltr">PlaylistViewModel</text></g><g transform="translate(1062.202702702703 150.3127413127413) rotate(0 424.3243243243244 602.7027027027027)"><path d="M0.03766993433237076 -1.6345998421311378 L848.8796691364937 -0.4100312367081642 L848.0308215088539 1206.271540369335 L1.2008438482880592 1207.3388061183127" stroke="none" stroke-width="0" fill="#fa5252"></path><path d="M-0.5206008583307267 -0.3240324825048447 C271.19655098270727 -1.8459078112164067, 542.3336582680812 -1.2781775751629398, 849.1515035054974 -0.29320505559444426 M-0.1923107072710991 0.16984931677579881 C286.6838970380458 3.474628888956599, 572.5919483502573 3.4059500807443186, 848.6707918770009 0.07577578276395798 M848.2208676717572 0.1844644695520401 C850.1602608845042 414.4409627189507, 849.9774656460093 826.8300934146384, 848.0682827375226 1204.962509435657 M848.7866896278554 0.1761072799563408 C847.6839293550399 386.9417116133345, 847.9136196683792 774.1550378095058, 848.364578927248 1205.0758836703928 M847.8816166303449 1205.602849859241 C581.7443581386192 1206.3490580695707, 316.35654727872964 1205.4043310302334, -0.5199740082025528 1204.9400554599795 M848.4481402523213 1205.0646062808664 C647.5454987607695 1202.7840078452552, 447.44276724236244 1202.7889893153633, 0.03188071995973587 1205.1196385818157 M-0.6150141388177872 1206.057910532001 C-2.5174865257095655 798.7625297125933, -1.3742502700638135 391.5984141519747, 0.46674540936946873 0.6676556736230851 M-0.14697250574827195 1205.2955804305705 C-0.5623076901645278 903.1751554101303, -1.174783514520607 600.7453233462329, -0.3737066194415093 0.007772938907146454" stroke="#000000" stroke-width="2" fill="none"></path></g><g transform="translate(1081.9179536679535 27.193050193050112) rotate(0 233.48214285714306 37.35714285714289)"><text x="0" y="59.71428571428579" font-family="Cascadia" font-size="61.21018339768346px" fill="#000000" text-anchor="start" style="white-space: pre;" direction="ltr">LoginActivity</text></g><g transform="translate(1056.797297297298 1165.015444015444) rotate(0 424.3243243243242 94.59459459459461)"><path d="M0.811418853700161 -0.0005130395293235779 L847.88371752867 0.009907521307468414 L846.8946096814562 187.97420385580614 L-0.5570277348160744 188.90340188246324" stroke="none" stroke-width="0" fill="#333333"></path><path d="M0.5848006397485733 0.11168130338191987 C258.58122999345926 -0.2951709006283736, 516.3670300747091 -1.1251341078732466, 848.2356329164793 -0.6824075371026993 M0.3318466350436211 0.16892019063234331 C287.37821995281683 0.1355215803594202, 573.993164742758 0.6442646280736537, 848.5140737272193 -0.06603230684995652 M847.1863817639043 -1.0847934857010841 C847.8446723399933 46.448348561050125, 848.1693400321777 91.62854718739118, 850.2997891373326 187.39171846311643 M848.8232329591502 -0.6407477669417858 C849.7481026416893 40.491200048073736, 849.003312206852 81.29870404595059, 848.3961126312007 189.02309097077801 M848.395197220831 188.43531701814487 C571.1309426528375 187.69579341137734, 293.21094162488293 187.6981116982731, -0.023405250906944276 188.99432266008213 M848.7802777505805 189.45756855111674 C594.030426209883 191.51500062277998, 339.8638922351033 191.57845253279888, -0.38080380707979206 189.0086176405485 M0.7137856855988503 188.33801873128965 C-0.5860330973928041 149.45282619970072, -2.1299109374349183 109.63217071645164, -1.6690685376524925 0.39261897653341293 M-0.615243274718523 188.78107525136426 C0.3514145730516396 132.13518221122592, 1.1743197558900795 72.78813636957392, 0.2310357503592968 0.32670559361577034" stroke="#000000" stroke-width="2" fill="none"></path></g><g transform="translate(1421.6621621621625 1214.2046332046332) rotate(0 51.351351351351354 48.648648648648646)"><path d="M33.86260647553043 2.2649747976874295 C42.05983527383605 -0.8166309175042135, 54.82674813250756 0.27871550490856123, 63.90077092804975 2.13603100156692 C72.97479372359194 3.9933464982252787, 81.9344457348132 7.490961301314653, 88.30674324878356 13.408867777637582 C94.67904076275393 19.32677425396051, 100.03250259403508 29.166052798593093, 102.13455601187196 37.64346985950449 C104.23660942970885 46.12088692041589, 103.84888919530205 56.19478116851248, 100.91906375580484 64.27337014310598 C97.98923831630763 72.35195911769948, 91.74224708878931 80.63009715521498, 84.55560337488873 86.11500370706551 C77.36895966098815 91.59991025891604, 66.98824414218794 96.18987668942023, 57.799201472401364 97.18280945420915 C48.61015880261479 98.17574221899807, 37.64320122957968 95.55203416065366, 29.421347356169303 92.07260029579905 C21.199493482758925 88.59316643094444, 13.315846757775581 83.42758423488478, 8.468078231939103 76.3062062650815 C3.620309706102625 69.18482829527822, 0.5080551584458798 57.99918632360851, 0.33473620115043445 49.34433247697939 C0.1614172438549891 40.689478630350266, 2.982359381669445 31.705966473037442, 7.428164488166431 24.377083185306766 C11.873969594663416 17.04819989757609, 22.276863352189494 9.086401712962154, 27.009566840132347 5.37103275059534 C31.7422703280752 1.6556637882285266, 33.91600336112948 2.467148948469736, 35.82438541582355 2.0848694111058848 C37.732767470517615 1.7025898737420337, 38.18066538547792 2.374413323568936, 38.45985916829673 3.0773555264122336 M40.86203497181842 0.8878343791837864 C49.10585807051176 -1.833932065580703, 59.2526999397647 -0.9279006613090672, 67.58437710510583 1.8376029549365143 C75.91605427044696 4.603106571182096, 85.14283893197539 10.742594130789485, 90.85209796386519 17.480856076657275 C96.56135699575499 24.219118022525066, 100.83468809961418 33.92680423445416, 101.83993129644466 42.267174630143266 C102.84517449327514 50.60754502583237, 100.42979079332902 59.462086211209936, 96.88355714484807 67.52307845079191 C93.33732349636712 75.58407069037389, 87.98025684378051 85.65481272264847, 80.56252940555893 90.63312806763516 C73.14480196733736 95.61144341262184, 61.61492687651705 97.19777990663309, 52.37719251551859 97.39297052071197 C43.13945815452012 97.58816113479085, 32.772262772553084 96.24474045066759, 25.136123239568125 91.80427175210849 C17.499983706583166 87.36380305354939, 10.94181606686596 78.49618058654386, 6.560355317608824 70.75015832935738 C2.178894568351689 63.004136072170894, -1.8842335242880375 53.949293881095045, -1.152641255974686 45.328138208989586 C-0.42104898766133425 36.70698253688413, 5.239649099292833 25.868828419483236, 10.949908927488934 19.023224296724628 C16.660168755685035 12.17762017396602, 28.19926210581012 7.330635020164774, 33.108917713201926 4.254513472437935 C38.01857332059373 1.1783919247110966, 39.05118593084972 0.9121898819371441, 40.407842571839765 0.566495010363596 C41.76449921282981 0.22080013879004784, 41.28073166441638 1.4591156351374885, 41.248857559142216 2.1803442429966466" stroke="#ffffff" stroke-width="2" fill="none"></path></g><g><g transform="translate(499.557915057914 145.6718146718149) rotate(0 200.91148952585633 242.77779328797283)"><path d="M0.12277283817529683 0.7676715597510337 C16.475012242028843 72.81503407333614, 30.409138645339112 352.2558734889636, 97.57115803944903 432.7643168389393 C164.73317743355895 513.2727601889151, 352.29621279496064 475.33827599449467, 403.0948892028348 483.81833165960535 M-1.271910151122138 0.12509518328122793 C14.993720137428841 71.75385292686158, 29.46572297059494 349.97783791294603, 96.76688946545148 430.81598140357676 C164.06805596030802 511.6541248942075, 351.59092285067135 476.1773752080035, 402.53508881801713 485.1539561270658" stroke="#000000" stroke-width="2" fill="none"></path></g><g transform="translate(499.557915057914 145.6718146718149) rotate(0 200.91148952585633 242.77779328797283)"><path d="M375.5677023734205 495.7156410164395 C381.99853837414526 493.3090308798174, 388.70055835119666 489.5146561579846, 402.30320056105006 483.67590406973994 M374.0103989484959 495.1220164804915 C383.80715438929127 491.14296711774324, 393.1337820835175 488.50098202882805, 402.74521394768703 486.104090423036" stroke="#000000" stroke-width="2" fill="none"></path></g><g transform="translate(499.557915057914 145.6718146718149) rotate(0 200.91148952585633 242.77779328797283)"><path d="M375.6806776342188 475.1947434001975 C382.1648342255681 478.01718153498985, 388.8380669611984 479.4517394987931, 402.30320056105006 483.67590406973994 M374.1233742092942 474.6011188642495 C383.8784883558006 477.75271059417463, 393.1658620001789 482.24085587415436, 402.74521394768703 486.104090423036" stroke="#000000" stroke-width="2" fill="none"></path></g></g><g transform="translate(88.50772200772167 21.386100386099542) rotate(0 371.3030888030901 34.50772200772212)"><text x="0" y="56.01544401544422" font-family="Cascadia" font-size="55.21235521235538px" fill="#000000" text-anchor="start" style="white-space: pre;" direction="ltr">Application Entry Point</text></g><g><g transform="translate(1468.428571428572 1408.3571428571427) rotate(0 1.7591024315783415 109.29717091735782)"><path d="M-0.27283799797296526 1.036999846994877 C0.17255778731336402 37.50837997403881, 3.0295017511362934 181.7361719532381, 3.791042861129654 218.05852101338752 M1.7847833237517627 0.5358208213280888 C1.9934906075012457 36.68654326327099, 2.6038713015301878 179.92873901691058, 2.9582948995954665 216.0416697966373" stroke="#000000" stroke-width="2" fill="none"></path></g><g transform="translate(1468.428571428572 1408.3571428571427) rotate(0 1.7591024315783415 109.29717091735782)"><path d="M-5.761370896836565 188.28582810724075 C-3.2260794228821847 200.21000545639743, 2.403262527574464 209.30260453193665, 1.9030584035641822 214.7207698705113 M-8.343876901557492 188.13847422340805 C-5.331978392042606 195.0920093173097, -2.7175675602317177 201.38981619087346, 2.690145423097101 216.19828974404098" stroke="#000000" stroke-width="2" fill="none"></path></g><g transform="translate(1468.428571428572 1408.3571428571427) rotate(0 1.7591024315783415 109.29717091735782)"><path d="M14.759383206447845 188.14925058941577 C9.224579515680604 200.0804762582927, 6.784702400380823 209.22678066577245, 1.9030584035641822 214.7207698705113 M12.176877201726919 188.00189670558308 C10.224131283245951 195.05176035159553, 7.87286234769612 201.3826167034351, 2.690145423097101 216.19828974404098" stroke="#000000" stroke-width="2" fill="none"></path></g></g><g transform="translate(1693.428571428572 1215.5) rotate(0 44.64285714285711 42.85714285714287)"><path d="M-1.518420659005642 0.3163691386580467 C19.818664119445838 0.771075707062015, 42.645533138619975 -0.7248299306790739, 90.34226411048849 0.7165916785597801 M0.6356712989509106 0.4892716594040394 C20.15421644571635 -1.3354438225339562, 40.25983968696421 -1.6201162020276696, 89.08123272497733 -0.5294183306396008 M90.53637688819845 -1.2655154839158058 C89.50620690626751 31.058018640748102, 90.49491421026836 58.500533173126854, 87.86846559707601 85.70283645923651 M89.80718964178641 0.13691296055912971 C90.08372329760869 22.59063268506102, 89.43507467795689 46.52886855336174, 89.99271350939352 85.27381193797505 M87.92823999587972 87.07284111316717 C62.30673344992096 87.3662036863555, 37.79659317593486 86.71613850271598, 0.8276799097657204 86.6512100153736 M89.97578102190573 85.92570841472066 C69.79527174814466 85.39956361600865, 51.99651830324101 84.79487628290165, -0.0002219267189502716 85.00166106383718 M1.9777253046631813 84.4924671107105 C1.0854787358215874 53.316293719623786, -0.036058711154120515 18.19220620500191, 1.5884547606110573 0.299749456346035 M0.26827649399638176 85.68892741362966 C0.28201762852924217 54.23096142017417, 0.708632985928229 24.497990086142515, -0.00009520724415779114 -0.595748882740736" stroke="#ffffff" stroke-width="2" fill="none"></path></g><g transform="translate(2975.571428571429 276.21428571428487) rotate(0 30.357142857142776 50)"><path d="M30.94928339868784 -0.1410619392991066 C37.39658263368794 13.834788172404682, 47.38853388727235 26.32476482325367, 59.52278794880408 52.211362443864346 M30.8969498090446 -0.33576760813593864 C42.48334268626884 19.229124393580214, 53.52395495897413 39.31477530215468, 61.102286124335706 50.16779353097081 M60.00516976948279 49.26422842592001 C50.59555654940318 67.88204796719764, 40.447489287060236 84.36309284191046, 30.484613694250584 101.7876351699233 M61.29787805091041 51.58568121865392 C53.23763404565718 62.634416148630635, 46.02621964974587 75.56143137757267, 31.387795250862837 99.264554399997 M30.049454011023045 100.19456609338522 C24.241508394517005 88.53520094987005, 16.78227354105562 79.12250344578176, 0.6814542189240456 49.47660168260336 M31.68522433564067 100.46390571072698 C21.272594459168612 85.31874308336526, 12.075722822733223 70.03564649980515, 0.08468405529856682 50.78403331711888 M-1.7591375932097435 51.66923817247152 C6.908234168104828 39.796408059336244, 10.632815751321614 30.711699421964585, 32.141455449163914 -0.8040134087204933 M-0.8314793892204762 50.65840293839574 C11.855718056298794 31.338670106045903, 23.38176901545376 12.226373095996678, 30.019560378044844 -0.8009913973510265" stroke="#ffffff" stroke-width="2" fill="none"></path></g><g transform="translate(1175.5714285714291 1215.5) rotate(0 44.64285714285717 48.214285714285666)"><path d="M46.37044867128134 0.9278114214539528 C56.31725981823569 15.26408005037478, 70.02085071953815 29.090570841889296, 89.45508239631147 48.568066634237766 M44.12043120339513 0.33461908623576164 C54.87436961201154 9.998834906837772, 62.70178190490499 20.89474789792938, 89.85644201029629 48.59799329563975 M87.62275550727338 48.31680587679148 C74.73908245478361 66.4920372445136, 58.10012541679401 84.06965783233082, 43.03912075608969 94.82658863386928 M89.55823472727627 49.83423463627696 C78.57638095917449 59.27126288217091, 68.82759885822026 70.74561770127283, 45.260555762797594 95.7157974312347 M44.21124943345785 94.64997387251674 C33.76077222363225 82.76298619325132, 22.260714740540298 71.68667387629722, -1.5724269524216652 50.378579653799534 M45.27799179032445 97.37028218007504 C27.890001480696455 79.33513847123825, 12.361254095328704 61.59312210788149, 0.8204895444214344 48.85079876706004 M-1.9017020836472511 47.938720263540745 C11.782836413644256 35.238373294658956, 26.147063553966586 21.66007334720343, 45.088387094438076 -1.466564379632473 M-0.9841264300048351 48.2330972366035 C13.030520790405571 36.453549957834184, 24.325904726199806 22.966746070422232, 45.36783863976598 -0.06101985648274422" stroke="#ffffff" stroke-width="2" fill="none"></path></g><g transform="translate(2639.6640926640935 141.3687258687255) rotate(0 424.3243243243244 602.7027027027027)"><path d="M-1.2274057045578957 -0.10076471418142319 L848.6351303971701 -0.5395171269774437 L849.6174123204642 1204.5966076063546 L-1.4785579815506935 1205.933077971879" stroke="none" stroke-width="0" fill="#ced4da"></path><path d="M-0.42132175862789156 -0.022610726952552798 C282.97757679191795 -1.4490727379515365, 567.1215101325029 -1.1775894119932844, 848.5018310747438 -0.6311099678277969 M0.07446929663419724 0.3074178293347359 C221.95431586636892 -2.9572726446631803, 443.2358393770216 -2.809067316675509, 848.7273232198648 0.10022717267274857 M847.8636802873903 -0.007766309380531311 C847.510874780771 260.64258100181013, 847.3417367306917 521.9054618823368, 849.0307778559022 1204.7643687369855 M848.5308773733072 -0.13723201006650926 C850.8603768838822 439.79590990603776, 851.5178714765489 879.9364813265366, 848.8668865419321 1205.5667520868215 M849.1240479669862 1204.6059008719953 C517.1917955387283 1205.4070715844632, 184.5719607130095 1205.3862270295622, 0.4828441768884659 1205.5766679885419 M848.3244568086558 1205.141097103301 C613.5309478877766 1204.433454280085, 378.34761200156566 1204.2580481578773, 0.053338019549846655 1205.684947096053 M-0.17762106359004975 1205.8590448501143 C-1.1428148245489276 796.6240495715592, -0.7535117125188984 387.7560800498402, 0.7085499912500381 -0.7833723694086075 M0.3637525245547295 1205.7035181867514 C-0.6189332918138121 808.8144382329808, -0.7966651395768736 412.08835418985495, 0.2222073718905449 -0.2279514715075493" stroke="#000000" stroke-width="2" fill="none"></path></g><g transform="translate(2634.2586872586876 1156.0714285714294) rotate(0 424.32432432432415 94.59459459459461)"><path d="M-0.013518251478672028 -0.5395171269774437 L849.6174123204638 -0.808797799050808 L847.1700906670977 189.7168617556627 L-0.7175437584519386 188.63442495565965" stroke="none" stroke-width="0" fill="#333333"></path><path d="M-0.24240072667598725 -0.12547737658023836 C288.366033724192 0.24194876374425078, 575.222139683849 -0.5351671534615597, 848.3393916330625 -0.14539934694766998 M0.1660398170351982 -0.2919918939471245 C320.88590064085 -2.7526838203136976, 642.5319012962078 -2.5086700816814957, 848.3145007348944 -0.053944818675518036 M847.4298483795811 -0.7077881470322609 C845.150659156812 58.29465987895794, 847.7476275692113 114.71638128141298, 849.946095413654 190.24198277395323 M847.8327538474788 -0.05794725939631462 C848.9194640268544 51.81861197354424, 848.6372170795659 102.54907211590863, 849.5627952321757 189.95892263677075 M849.3653164110472 189.8587479377921 C611.0217221016817 186.44541117355635, 373.3369321136054 185.96795956299115, -0.18384941518306733 189.79406888734653 M848.6225977636267 189.28691830735758 C620.678323245894 186.86846335107413, 392.9968096534544 187.225682045761, 0.15694925040006638 189.28645525079324 M0.07408884912729263 189.5320254127319 C1.4673964417464025 136.20955839934385, 2.191424790669132 80.3332202311706, 0.5808906927704811 0.17463072389364243 M-0.49482913687825203 189.2919229390855 C-2.6596098859366535 117.16806520128976, -1.1649326999243854 44.84171188854285, -0.6137028522789478 -0.050382357090711594" stroke="#000000" stroke-width="2" fill="none"></path></g><g transform="translate(2999.1235521235517 1205.2606177606197) rotate(0 51.351351351351354 48.648648648648646)"><path d="M71.78115329964075 3.960790973939538 C79.84791968475797 6.860191858943715, 88.71898485891518 15.127646946786392, 93.89950100196096 22.452640086977233 C99.08001714500674 29.777633227168074, 102.4846042702596 39.59581619062287, 102.86425015791542 47.91074981508459 C103.24389604557125 56.225683439546316, 100.89270959534257 65.11717290668446, 96.17737632789593 72.34224183374756 C91.46204306044929 79.56731076081067, 82.60066038338529 87.07952734882085, 74.5722505532356 91.26116337746323 C66.54384072308592 95.44279940610562, 57.0304086201672 97.98570769385084, 48.00691734699784 97.43205800560185 C38.983426073828475 96.87840831735285, 27.784149228382002 93.16629558605891, 20.431302914219415 87.93926524796925 C13.078456600056828 82.71223490987958, 7.174748180212632 74.08361640763974, 3.889839462022316 66.06987597706383 C0.604930743832 58.05613554648792, -0.7285921927890644 48.27954615330095, 0.7218506050775204 39.856822664513814 C2.1722934029441054 31.43409917572668, 6.573462532058193 21.762913407377916, 12.592496249221824 15.53353504434103 C18.611529966385454 9.304156681304143, 28.235356546423752 4.6698030275805795, 36.83605290805931 2.4805524862924955 C45.436749269694864 0.29130194500441187, 57.48489285174867 1.8154993673934414, 64.19667441903518 2.3980317966125284 C70.90845598632168 2.9805642258316154, 74.55255825690068 4.877197864150063, 77.10674231177836 5.9757470616070165 C79.66092636665604 7.07429625906397, 80.1659772500273 8.242704592211494, 79.52177874830127 8.989326981354246 M72.61002476593562 5.479554767148073 C80.77773155191167 7.938936420470636, 89.73344991571363 14.290203425200108, 94.88953932514346 20.88648921537653 C100.04562873457328 27.48277500555295, 103.12590461411374 36.23520917824964, 103.54656122251457 45.057269508206595 C103.9672178309154 53.87932983816355, 101.92527019933198 65.90189251413634, 97.41347897554847 73.81885119511827 C92.90168775176497 81.7358098761002, 84.48919824535622 88.60557835112348, 76.47581387981356 92.55902159409818 C68.4624295142709 96.51246483707288, 58.50820123090165 98.04120139559986, 49.33317278229252 97.5395106529665 C40.158144333683396 97.03781991033314, 29.051078306865694 94.74267492194848, 21.425643188158787 89.54887713829801 C13.80020806945188 84.35507935464754, 7.211503401602084 74.47703188671218, 3.580562070051087 66.37672395106368 C-0.050379261499909234 58.27641601541518, -1.9140561956820825 49.28420992630752, -0.36000480114719124 40.947029524407 C1.1940465933877 32.60984912250648, 6.864054851375218 22.782682810335597, 12.904870437260435 16.35364153966058 C18.94568602314565 9.92460026898556, 27.127585890674325 4.734142769308942, 35.88488871416411 2.372781900356891 C44.6421915376539 0.011421031404839965, 59.36788175695308 1.9399301891607905, 65.44868737819915 2.1854763259482723 C71.52949299944522 2.431022462735754, 71.40135987980564 3.2353522544361675, 72.36972244164056 3.846058721081782 C73.33808500347548 4.456765187727396, 71.65461998755816 5.020809340136714, 71.25886274920866 5.849715125821959" stroke="#ffffff" stroke-width="2" fill="none"></path></g><g transform="translate(3270.8899613899616 1206.5559845559858) rotate(0 44.64285714285711 42.85714285714287)"><path d="M1.7038877382874489 0.365014873445034 C26.166318487642048 -1.4377332046361908, 52.2935823058443 -0.22345665243587332, 90.85602300826986 0.3723464831709862 M-0.8517818041145802 -0.35946641489863396 C33.84440583283346 0.9023355520995595, 66.46006902520142 0.516905573728893, 89.35985857088644 -0.9812104515731335 M87.64406889144857 0.13517340272665024 C89.71869433139045 24.028483585587576, 90.0608180782624 52.314944098038346, 88.68484442893941 85.12542933757818 M90.11355596621115 0.745759267359972 C89.13197061792009 23.17696648782918, 89.500522468239 46.316933016159716, 89.08896249373038 86.30853486220754 M89.96159880821187 87.3360711985401 C72.63015210974424 86.88971756119284, 53.100745511374264 87.97376034874472, -0.6302256211638451 84.09332651432074 M88.99137204725821 85.52009320418752 C68.53308393513512 86.63128529395911, 47.90613661280696 86.17559622135016, -0.17485078051686287 85.49225938479817 M1.0473466292023659 86.1834239416889 C1.7396226142133986 53.181146454598235, 0.5491383288587842 24.739499765847413, 1.599673070013523 1.8187626227736473 M-0.9391587562859058 85.58196103732503 C0.9796576899077212 53.04199029239162, -0.18956359209758888 21.459069870944532, -0.006759125739336014 -0.26975856348872185" stroke="#ffffff" stroke-width="2" fill="none"></path></g><g transform="translate(2753.0328185328185 1206.5559845559858) rotate(0 44.64285714285711 48.214285714285666)"><path d="M45.365014873445034 -0.3670439347624779 C55.289223307461626 12.064863582381182, 68.44735297984846 27.62361039301115, 89.65806076888532 50.53708914667368 M44.640533585101366 0.19668642804026604 C60.01689012162922 16.2758356304041, 74.75547240329112 33.919337458642474, 88.3045038341412 48.990292113274336 M89.42088768844098 49.95532301813364 C76.92833344987464 61.27221321820146, 68.99677644433721 70.71217024406147, 44.411143623292446 95.74241137823878 M90.0314735530743 49.54559473320842 C79.98913155140625 60.63966112791426, 70.6830324149132 69.88766169542708, 45.5942491479218 95.42919076180874 M46.62178548425436 97.6356818707925 C27.4999476076769 77.64363445966897, 11.052734231735982 58.99564492795614, -1.6209591999650002 47.678458489477634 M44.80580748990178 96.56191647744595 C32.3760478715705 82.76880818395205, 18.713431255455525 68.28190191412075, -0.22202632948756218 49.56704930588603 M0.4691382274031639 50.771374978125095 C11.62427411224693 34.46372002083808, 27.4240356701985 20.600984717719257, 46.81876262277365 1.4905639067292213 M-0.1323246769607067 49.55551842972636 C10.653050667829813 36.53358135875314, 22.445815873555844 24.865187855996183, 44.73024143651128 0.4843818359076977" stroke="#ffffff" stroke-width="2" fill="none"></path></g><g><g transform="translate(1993.428571428572 757.3571428571428) rotate(0 280.7866287720456 -0.3554017287958118)"><path d="M0.6465746149420737 -1.1967621311545371 C93.76099069877748 -1.0989316925406456, 466.383969470078 0.38552823215723037, 559.8094527536205 0.4081557288765907 M-0.47311244155280296 0.7893338046502323 C92.91585079748405 0.5328929717373103, 468.51943457291634 -1.3184926577378064, 562.046369985644 -1.500137262241915" stroke="#000000" stroke-width="2" fill="none"></path></g><g transform="translate(1993.428571428572 757.3571428571428) rotate(0 280.7866287720456 -0.3554017287958118)"><path d="M531.8983803008425 7.354570429812558 C545.6692871581073 5.4410062840900135, 554.30129994292 1.564672205533297, 562.5470664882699 -0.37925900538451973 M533.3171340998936 8.019204422871955 C544.3159008794789 5.105916339865398, 555.9538806839033 -0.12936807870492295, 561.1959174619655 -1.6939077491033823" stroke="#000000" stroke-width="2" fill="none"></path></g><g transform="translate(1993.428571428572 757.3571428571428) rotate(0 280.7866287720456 -0.3554017287958118)"><path d="M531.8239660132116 -13.166503248229617 C545.5935798221504 -7.0037905807889285, 554.2548805590383 -2.803446892937651, 562.5470664882699 -0.37925900538451973 M533.2427198122626 -12.50186925517022 C544.1631879205281 -7.294152473970679, 555.8306147115683 -4.408902500892207, 561.1959174619655 -1.6939077491033823" stroke="#000000" stroke-width="2" fill="none"></path></g></g><g transform="translate(2010.137755102041 511.64285714285734) rotate(0 268.88095238095235 70.14285714285711)"><text x="0" y="56.14285714285711" font-family="Cascadia" font-size="57.389315298519705px" fill="#000000" text-anchor="start" style="white-space: pre;" direction="ltr">Sends user email</text><text x="0" y="126.28571428571422" font-family="Cascadia" font-size="57.389315298519705px" fill="#000000" text-anchor="start" style="white-space: pre;" direction="ltr">  via Intent</text></g><g><g transform="translate(3057.7142857142862 1390.6428571428569) rotate(0 1.4548122114367743 111.3048045144829)"><path d="M-0.8819068416953086 0.6748445257544518 C-0.36521465061678093 37.69026674507629, 3.1122490466349517 184.60706345431862, 3.791531264568948 221.2056720139725 M0.8559533370751886 -0.01646604356355974 C1.1733876396577942 37.26142058910314, 2.7300609271657414 185.7943485560583, 2.95903971484051 222.62607507252935" stroke="#000000" stroke-width="2" fill="none"></path></g><g transform="translate(3057.7142857142862 1390.6428571428569) rotate(0 1.4548122114367743 111.3048045144829)"><path d="M-6.420138496977057 194.8918865111969 C-4.36770196053488 204.02218497409098, -2.17663813362333 215.7865533500467, 2.9569917364989307 223.76811254614833 M-7.180257454585996 195.18968377014022 C-4.376065558855565 202.0131498929697, -2.0013088535189345 210.1163704412879, 2.5165783843968894 222.57519322851542" stroke="#000000" stroke-width="2" fill="none"></path></g><g transform="translate(3057.7142857142862 1390.6428571428569) rotate(0 1.4548122114367743 111.3048045144829)"><path d="M14.100303321323622 194.71448874465 C8.813014214917914 203.7574179650559, 3.6656634590999486 215.58522641547484, 2.9569917364989307 223.76811254614833 M13.340184363714684 195.01228600359332 C10.714481961179096 201.76358470351545, 7.660669608335931 209.91373484696587, 2.5165783843968894 222.57519322851542" stroke="#000000" stroke-width="2" fill="none"></path></g></g><g transform="translate(1268.9387755102046 608.4999999999998) rotate(0 203.57142857142856 64.28571428571433)"><path d="M-1.0866167172789574 -0.07555977255105972 L407.7970763306532 -0.1855858936905861 L408.72618280457596 129.2844454018134 L-1.964580498635769 128.30617892422856" stroke="none" stroke-width="0" fill="#ced4da"></path><path d="M-0.14052221649228464 -0.1749945847852507 C118.74461758029221 1.5758491121557374, 237.8416114883634 1.3775920395106183, 407.12377033755604 -0.5234244033763005 M-0.3323443016606708 -0.42816260509567927 C108.18142560404397 1.9540485774189322, 217.87802400193937 1.8483450950685487, 407.4204425399996 -0.2086442479127337 M407.6519760202084 -0.3226713761687279 C407.23451154412965 35.80947273543905, 405.77495997132996 68.12866671276949, 405.63782325493435 127.0806246516961 M407.50577231975535 0.27850405499339104 C406.83120503595893 47.41286613845403, 406.86081412008826 94.27004850389709, 407.12914547058085 128.69529612415613 M408.03991364939617 127.63843971703574 C316.4896320888312 129.12642749808427, 228.24299911290672 129.98997600280123, 0.24082875295709927 129.14932713499516 M407.50817168181504 128.49313575298902 C264.5439506664474 129.9481056293617, 121.26216432065627 130.41042035062242, -0.2934808358581716 128.09820143305885 M-0.4958292618393898 130.39713032224358 C1.104856997196164 96.01516005183976, -0.10992834025195619 64.5668216784086, -0.6350583210587502 1.0997841730713844 M0.8777984566986561 128.7807318722564 C-1.3970046437212404 91.27062091603882, -0.6251546538301882 54.71550797617866, -0.4674181751906872 -0.7427346296608448" stroke="#000000" stroke-width="2" fill="none"></path></g><g transform="translate(1382.2040816326535 639.3163265306118) rotate(0 81.03061224489795 34.33500518851611)"><text x="0" y="55.6700103770322" font-family="Cascadia" font-size="54.936008301625726px" fill="#000000" text-anchor="start" style="white-space: pre;" direction="ltr">Login</text></g><g><g transform="translate(2639.857142857143 300.92857142857156) rotate(0 420.85310811123645 -0.2989800720910125)"><path d="M-0.6086984619498252 0.7165432199835777 C139.8685466349834 0.8241410955786705, 701.5816713575093 0.705717395246029, 842.314914684423 0.503874658048153 M1.2725961161870512 0.04712446513585755 C141.59237360019807 -0.19442102638073258, 700.7084299512493 -1.4402041840273887, 841.0821994301181 -1.3541658952552826" stroke="#000000" stroke-width="2" fill="none"></path></g></g><g><g transform="translate(2643.428571428572 468.785714285714) rotate(0 421.53213510641206 0.8348610868072228)"><path d="M-0.8694257989525795 0.747258760035038 C139.57948553867274 0.7559610858559609, 701.2385883305041 0.14492082744836815, 841.7847485084615 0.05239482074975976 M0.8749869272578508 0.09396566371433446 C141.76155542832439 0.31160445879213516, 703.8452283350663 1.3645810500811784, 843.9336960117768 1.6173273528646677" stroke="#000000" stroke-width="2" fill="none"></path></g></g><g><g transform="translate(2647.000000000001 650.9285714285716) rotate(0 421.4528200062256 0.6169015311917292)"><path d="M-0.7503394111990929 1.166282008588314 C139.6617170871013 0.9550352796912194, 703.0706395391194 -0.11118810325860981, 843.6559794236503 -0.1600981011986733 M1.0565936685819177 0.7329761177580805 C141.27695853967788 1.2251926043909045, 702.9791064282047 1.5840149307530376, 843.1273231574396 1.2932756468933078" stroke="#000000" stroke-width="2" fill="none"></path></g></g><g><g transform="translate(2643.4285714285716 829.4999999999998) rotate(0 421.92790670264367 -0.7182026481667663)"><path d="M0.9957287326455118 0.021653531491756528 C141.38811207420764 0.16745788902044306, 701.4964287523 0.35992133468389514, 841.6947614957176 0.28930265754461293 M0.05934758794493966 -1.01258230981417 C140.859710895015 -1.1958629163820296, 703.628434978305 -1.9675431763846427, 843.7964658173422 -1.6813881960231811" stroke="#000000" stroke-width="2" fill="none"></path></g></g><g><g transform="translate(2647.0000000000005 993.7857142857142) rotate(0 421.3778325636299 0.15974000012096212)"><path d="M0.093945001065731 -1.1808535560965538 C140.31626637287076 -1.2963913425803184, 701.3234374020068 -0.10554866641759864, 841.8751365203939 -0.027881191670894534 M-1.3158726027142258 0.8135943816136568 C139.22514620047633 0.8417670054268092, 703.364623169108 1.5926150719355794, 844.0715377299737 1.4949064339231701" stroke="#000000" stroke-width="2" fill="none"></path></g></g><g transform="translate(2722.0000000000005 183.78571428571445) rotate(0 193.5 36.5)"><text x="0" y="58" font-family="Cascadia" font-size="60.00000000000001px" fill="#000000" text-anchor="start" style="white-space: pre;" direction="ltr">Video Title</text></g><g transform="translate(2714.2142857142862 353.714285714286) rotate(0 193.5 36.5)"><text x="0" y="58" font-family="Cascadia" font-size="60.00000000000001px" fill="#000000" text-anchor="start" style="white-space: pre;" direction="ltr">Video Title</text></g><g transform="translate(2717.7857142857147 525.1428571428573) rotate(0 193.5 36.5)"><text x="0" y="58" font-family="Cascadia" font-size="60.00000000000001px" fill="#000000" text-anchor="start" style="white-space: pre;" direction="ltr">Video Title</text></g><g transform="translate(2724.9285714285716 707.285714285714) rotate(0 193.5 36.5)"><text x="0" y="58" font-family="Cascadia" font-size="60.00000000000001px" fill="#000000" text-anchor="start" style="white-space: pre;" direction="ltr">Video Title</text></g><g transform="translate(2728.5 878.7142857142858) rotate(0 193.5 36.5)"><text x="0" y="58" font-family="Cascadia" font-size="60.00000000000001px" fill="#000000" text-anchor="start" style="white-space: pre;" direction="ltr">Video Title</text></g><g transform="translate(2724.9285714285725 1035.857142857143) rotate(0 193.5 36.5)"><text x="0" y="58" font-family="Cascadia" font-size="60.00000000000001px" fill="#000000" text-anchor="start" style="white-space: pre;" direction="ltr">Video Title</text></g><g transform="translate(1563.428571428572 1481.8571428571427) rotate(0 103.28571428571428 43.57366071428572)"><text x="0" y="70.14732142857146" font-family="Cascadia" font-size="70.65999034749048px" fill="#000000" text-anchor="start" style="white-space: pre;" direction="ltr">Has a</text></g><g transform="translate(1180.3571428571431 1717.2857142857142) rotate(0 288 292)"><path d="M-0.601528325676918 0.42619124948978426 C134.93046403825284 -1.3684881032705307, 269.98768528401854 -1.988581353545189, 576.1610814422369 -0.4377017825841904 M576.7844926983119 -0.5529597908258438 C576.7195420048237 152.79859279990197, 577.4745250484943 306.4845539599657, 576.6239535480738 584.4617190688848 M576.0752209991217 584.5928486019372 C428.83032599389554 582.5298904348612, 282.7394684642553 581.5657267500162, 0.32331355512142185 584.2686192661524 M-0.252307590842247 584.0602824538946 C-1.9973026180267333 400.49387190341946, -2.1101204776763915 215.45942851603027, -0.14437445104122162 0.500873789191246" stroke="#5c940d" stroke-width="4.5" fill="none" stroke-dasharray="12 8"></path></g><g transform="translate(1312.1744186046512 1957.1345514950165) rotate(0 154 29.5)"><text x="0" y="47" font-family="Cascadia" font-size="47.85145888594164px" fill="#000000" text-anchor="start" style="white-space: pre;" direction="ltr">AuthManager</text></g><g transform="translate(3495.2275132275113 1822.071428571428) rotate(0 170.9933862433868 35.92857142857156)"><text x="0" y="57.8571428571431" font-family="Cascadia" font-size="58.26254826254856px" fill="#000000" text-anchor="start" style="white-space: pre;" direction="ltr">Depends On</text></g><g><g transform="translate(3434.8733832600487 1960.069060062459) rotate(0 253.89536500201189 1.6611549918825403)"><path d="M0.608586810529232 1.0939310565590856 C85.44142748529127 1.2128013506347464, 423.9209323790874 1.260165204015637, 508.3217738473065 1.5453364624467667 M-0.5310438432823867 0.6226409159135073 C84.23313941209612 0.8092201478129407, 422.56641558504845 2.6800001505120497, 507.5553947445865 2.6996690678515463" stroke="#000000" stroke-width="2" fill="none"></path></g><g transform="translate(3434.8733832600487 1960.069060062459) rotate(0 253.89536500201189 1.6611549918825403)"><path d="M481.1549755093286 13.44625871909637 C484.9239453008117 8.644213485172726, 493.9021917170796 8.866447694069825, 508.1271633488055 2.541963321260455 M479.98711398435927 13.602586924115606 C487.7797940780352 10.204084007676274, 494.1705357497335 7.539858403735429, 508.13557362006264 2.5141671757319" stroke="#000000" stroke-width="2" fill="none"></path></g><g transform="translate(3434.8733832600487 1960.069060062459) rotate(0 253.89536500201189 1.6611549918825403)"><path d="M481.22098527599235 -7.074843714655682 C485.1161659311292 -6.874997527062071, 494.0783239530997 -1.6512066689256972, 508.1271633488055 2.541963321260455 M480.053123751023 -6.918515509636446 C487.9391573687185 -4.790386304939425, 494.3121229195053 -1.928375163359446, 508.13557362006264 2.5141671757319" stroke="#000000" stroke-width="2" fill="none"></path></g></g><g transform="translate(3974.2857142857138 1678.5) rotate(0 288 292)"><path d="M-0.015878549218177797 -0.07344931066036224 C128.53113227784635 2.443825285553932, 257.1462430804968 0.9527573038339614, 575.3980831474066 -0.7283915370702744 M0.2507802560925484 -0.1862581565976143 C159.60473669320345 -0.934369859516621, 318.9094331815839 -0.9633224104046826, 576.3964216306806 -0.3314654186367989 M575.6729893058539 0.46678287088871007 C575.1460228030681 151.08288903832437, 575.6552777354717 301.7131706207991, 575.7559298843146 583.2914457470179 M575.7706811979413 0.15210582464933398 C578.092229102552 217.29877441078426, 578.1323640570045 434.42192462533717, 575.9252169206738 583.7459778472781 M576.2990245193243 584.6125723034144 C446.7577595800161 585.5007306524516, 318.22033680379394 585.3880257078409, 0.07975257337093354 584.1364691883325 M575.7862806871533 584.3550495788455 C381.4965403869748 585.2656298982502, 186.8724815443158 584.9196149694324, 0.1892127111554146 583.8867801830172 M0.5136919349431992 583.6233916431665 C0.3085507564544678 354.88269326686856, -0.006358129501342791 126.84855311810966, -0.019608941674232484 0.6567764431238174 M0.36950255185365677 584.2576805278659 C2.3733558961749077 463.4665286615491, 2.16673486918211 342.3978545174003, 0.20564533025026321 0.3057365104556084" stroke="#364fc7" stroke-width="4" fill="none"></path></g><g transform="translate(4166.642857142855 1905.285714285714) rotate(0 112 59)"><text x="0" y="47" font-family="Cascadia" font-size="47.85145888594164px" fill="#000000" text-anchor="start" style="white-space: pre;" direction="ltr">YouTube </text><text x="0" y="106" font-family="Cascadia" font-size="47.85145888594164px" fill="#000000" text-anchor="start" style="white-space: pre;" direction="ltr">Wrapper</text></g><g transform="translate(10 1688.3571428571422) rotate(0 288 292)"><path d="M0.3915429443120957 -0.6305351108312607 C184.7778024286032 -1.3743617109060289, 369.38177126348023 -1.2234497121572496, 576.1785881370306 -0.1720373958349228 M-0.29996113032102584 -0.22372172623872758 C142.69487970620395 -1.4038457582592963, 285.80628090649844 -1.1259562681317328, 575.8772049024701 -0.24215286523103716 M576.7145294517279 -0.14883564412593842 C575.6554461123943 152.07791238427163, 576.8889320018292 302.9754764527083, 575.3826629012823 584.5209077984094 M576.0232906416059 0.2625609561800957 C573.3685720819831 228.85870731025935, 573.33282202667 458.81238998025657, 575.6439213350416 583.7267637893558 M576.402417692542 583.504436698556 C372.52173319756986 584.2491952673197, 168.86950024068355 585.0870640531778, 0.317947992682457 584.4675547748805 M576.143998773396 583.7647905990482 C421.9762524917722 584.6635595170856, 268.3025079801679 584.4763397542835, 0.27884608060121535 584.1791567012667 M0.7441725105047227 584.3512545734644 C-1.5780022220611571 398.05582253932954, -2.0897739009857177 212.44858935773374, 0.032783254981040955 0.08050118982791901 M-0.28466290682554246 583.8368246242404 C1.3120023118853568 447.18714957982303, 0.883793150126934 310.77850694507356, -0.21953453272581103 -0.35142920762300495" stroke="#364fc7" stroke-width="4" fill="none"></path></g><g transform="translate(41.64285714285779 1961.5714285714275) rotate(0 248.6428571428571 27.523318145269343)"><text x="0" y="44.04663629053873" font-family="Cascadia" font-size="44.645116157052485px" fill="#000000" text-anchor="start" style="white-space: pre;" direction="ltr">GoogleSignInManager</text></g><g transform="translate(694.5000000000003 1822.4999999999995) rotate(0 187.99074074074073 39.5)"><text x="0" y="63.000000000000014" font-family="Cascadia" font-size="64.05405405405418px" fill="#000000" text-anchor="start" style="white-space: pre;" direction="ltr">Implements</text></g><g><g transform="translate(3634.8393083279557 235.16692459708838) rotate(0 120.04646379111 -0.9967783282950222)"><path d="M-1.0112559780478476 -0.7373163476586342 C39.10041049141941 -0.8315309321083103, 200.74984893894484 -1.3736793871708086, 241.10418356026756 -1.2335357562884535" stroke="#5c940d" stroke-width="4.5" fill="none" stroke-dasharray="12 8"></path></g></g><g transform="translate(3951.915305124982 196.546676441842) rotate(0 139.23411534701836 32.65224828934504)"><text x="0" y="52.30449657868999" font-family="Cascadia" font-size="52.80687054880604px" fill="#000000" text-anchor="start" style="white-space: pre;" direction="ltr">Interface</text></g><g><g transform="translate(3640.1579753535593 366.9077610925051) rotate(0 114.57183958906671 0.0983713681783911)"><path d="M0.544934655725956 0.5407665476202965 C38.83277100095361 0.6319093450903893, 191.67952048228236 -0.5521881833672524, 229.77179255749047 -0.5439234986901283 M-0.6281133793573828 -0.22093496021814651 C37.58021067521371 0.1224255541246384, 191.1346244510833 0.9114898085873573, 229.3183076880122 0.7079419157188385" stroke="#364fc7" stroke-width="4" fill="none"></path></g></g><g transform="translate(3932.3257924870836 329.98121770702437) rotate(0 216.24413489736025 32.65224828934498)"><text x="0" y="52.30449657868999" font-family="Cascadia" font-size="52.80687054880604px" fill="#000000" text-anchor="start" style="white-space: pre;" direction="ltr">Concrete Class</text></g><g transform="translate(3627.8571428571436 52.999999999999545) rotate(0 93.02810361681304 32.65224828934504)"><text x="0" y="52.30449657868999" font-family="Cascadia" font-size="52.80687054880604px" fill="#000000" text-anchor="start" style="white-space: pre;" direction="ltr">Legend</text></g><g><g transform="translate(644.6369915408834 1987.722995350829) rotate(0 246.13714202344218 0.34393880861756543)"><path d="M-0.1458134427666664 0.6393042102456092 C82.20263988414557 0.7672219291329384, 411.8225372810737 1.383966399729252, 493.955788276443 1.0801382079720498 M-1.6815042295586318 -0.07066502471454439 C80.57791844798962 -0.28122275521047413, 411.146013698781 -0.40587445219047374, 493.3508475148638 -0.47536398162133997" stroke="#000000" stroke-width="2" fill="none"></path></g><g transform="translate(644.6369915408834 1987.722995350829) rotate(0 246.13714202344218 0.34393880861756543)"><path d="M466.23187303610314 10.891746319751894 C475.0782492167457 5.788035076640549, 479.4436734533853 4.083952568797683, 492.23527824371655 -2.119651530580595 M465.4293231337534 9.005409996878063 C474.9104137537726 7.268329403437828, 484.0025038700888 2.296405495620414, 492.71584217860897 -0.8179503387678415" stroke="#000000" stroke-width="2" fill="none"></path></g><g transform="translate(644.6369915408834 1987.722995350829) rotate(0 246.13714202344218 0.34393880861756543)"><path d="M466.2192893808417 -9.629458421623793 C475.12276235623494 -8.807539679655704, 479.491820194969 -4.586007492969937, 492.23527824371655 -2.119651530580595 M465.416739478492 -11.515794744497624 C474.92273401958 -6.485247454935363, 484.0189740518651 -4.689561038987272, 492.71584217860897 -0.8179503387678415" stroke="#000000" stroke-width="2" fill="none"></path></g></g><g><g transform="translate(1169.428571428572 2011.6428571428569) rotate(0 -3.7781684284298436 -5.8788136501398185)"><path d="M-0.922291924059391 0.04653372913599019 C-2.064105785815502 -1.9599109089800397, -6.44790104492796 -10.178958761904974, -7.3132180194770395 -11.804161029415535 M0.7943660864699633 -0.9746400084067136 C-0.47992134152025967 -2.8926003333327603, -7.16166796246772 -9.081835323682641, -8.350702943329647 -10.838920318637374" stroke="#364fc7" stroke-width="4" fill="none"></path></g><g transform="translate(1169.428571428572 2011.6428571428569) rotate(0 -3.7781684284298436 -5.8788136501398185)"><path d="M-2.6614450693749028 -7.869297699854338 C-4.758210277246079 -8.069880635384761, -5.112807833870085 -9.270105399685104, -7.7439477574335776 -10.824970654134455 M-2.922461502741662 -7.923390326092115 C-4.526122116009494 -8.411668183801655, -6.0737531357524155 -9.825593749112793, -8.157670664119486 -10.752423871252747" stroke="#364fc7" stroke-width="4" fill="none"></path></g><g transform="translate(1169.428571428572 2011.6428571428569) rotate(0 -3.7781684284298436 -5.8788136501398185)"><path d="M-5.954228282300326 -4.944506387744326 C-7.195738257482037 -5.884533076410884, -6.689364886006856 -7.84950915522202, -7.7439477574335776 -10.824970654134455 M-6.215244715667085 -4.998599013982103 C-6.872156319062508 -6.298855713746513, -7.4837160449084275 -8.54423996032114, -8.157670664119486 -10.752423871252747" stroke="#364fc7" stroke-width="4" fill="none"></path></g></g><g transform="translate(2664.5178571428573 10) rotate(0 287 37.5)"><text x="0" y="60" font-family="Cascadia" font-size="61.21018339768346px" fill="#000000" text-anchor="start" style="white-space: pre;" direction="ltr">PlaylistActivity</text></g><g transform="translate(3162.571428571429 1468.0691964285713) rotate(0 103.28571428571422 43.57366071428572)"><text x="0" y="70.14732142857146" font-family="Cascadia" font-size="70.65999034749048px" fill="#000000" text-anchor="start" style="white-space: pre;" direction="ltr">Has a</text></g></svg>